<?xml version="1.0" encoding="UTF-8" standalone="no"?>
<svg width="200px" height="200px" viewBox="0 0 200 200" version="1.1" xmlns="http://www.w3.org/2000/svg" xmlns:xlink="http://www.w3.org/1999/xlink" xmlns:sketch="http://www.bohemiancoding.com/sketch/ns">
    <title>pd-compass</title>
    <description>Created with Sketch (http://www.bohemiancoding.com/sketch)</description>
    <defs></defs>
    <g id="Page-1" stroke="none" stroke-width="1" fill="none" fill-rule="evenodd" sketch:type="MSPage">
        <path d="M148,51 L102.566555,75.1359566 C95.2862167,74.2973734 87.9723934,76.6796678 82.5711027,82.0814439 C77.2139734,87.4385731 74.8899139,94.6961027 75.5945567,101.704678 L51,148 L97.2729988,123.41709 C104.404838,124.13338 111.587147,121.759336 116.918071,116.427441 C122.044202,111.302281 124.746788,104.102502 123.863558,96.4329598 L148,51 L148,51 Z M107.924324,106.924552 C103.822936,111.025393 97.1757239,111.024906 93.0753102,106.924552 C88.9748966,102.824197 88.9748966,96.1756198 93.0753102,92.0752656 C97.1752366,87.9749115 103.823911,87.9749115 107.924324,92.0752656 C112.025225,96.1765945 112.025225,102.824197 107.924324,106.924552 L107.924324,106.924552 Z M99.5,19 C143.988373,19 180,55.0038675 180,99.5 C180,143.988858 143.995648,180 99.5,180 C55.0111416,180 19,143.995648 19,99.5 C19,55.0111416 55.0038675,19 99.5,19 L99.5,19 Z M100,0 C44.7713592,0 0,44.7713592 0,100 C0,155.228641 44.7713592,200 100,200 C155.228641,200 200,155.228641 200,100 C200,44.7713592 155.228641,0 100,0 L100,0 L100,0 Z" id="compass-4-icon" fill="#666666" sketch:type="MSShapeGroup"></path>
    </g>
</svg>