<?xml version="1.0" encoding="UTF-8" standalone="no"?>
<svg width="29px" height="35px" viewBox="0 0 29 35" version="1.1" xmlns="http://www.w3.org/2000/svg" xmlns:xlink="http://www.w3.org/1999/xlink" xmlns:sketch="http://www.bohemiancoding.com/sketch/ns">
    <title>pd-input-icon-b</title>
    <description>Created with Sketch (http://www.bohemiancoding.com/sketch)</description>
    <defs></defs>
    <g id="Page-1" stroke="none" stroke-width="1" fill="none" fill-rule="evenodd" sketch:type="MSPage">
        <g id="pd-input-icon-b" sketch:type="MSLayerGroup">
            <g id="Page-1" sketch:type="MSShapeGroup">
                <path d="M14.5,0 C6.49178338,0 0,6.40873786 0,14.3143204 C0,22.342233 7.05035608,27.6375121 14.5,35 C21.9496439,27.6375121 29,22.342233 29,14.3143204 C29,6.40873786 22.5082166,0 14.5,0 L14.5,0 L14.5,0 Z M14.5,24.3775 C8.62470326,24.3775 3.86173294,19.6755218 3.86173294,13.8754612 C3.86173294,8.07531553 8.62470326,3.37333738 14.5,3.37333738 C20.3753828,3.37333738 25.1383531,8.07523058 25.1383531,13.8754612 C25.1383531,19.6755218 20.3753828,24.3775 14.5,24.3775 L14.5,24.3775 L14.5,24.3775 Z" id="location-5-icon" fill="#A4C6FD"></path>
                <path d="M11.08,8.38 L15.04,8.38 C15.5000023,8.38 15.9624977,8.41249967 16.4275,8.4775 C16.8925023,8.54250032 17.3099982,8.67249902 17.68,8.8675 C18.0500019,9.062501 18.3499988,9.3349983 18.58,9.685 C18.8100012,10.0350017 18.925,10.4999971 18.925,11.08 C18.925,11.680003 18.7575017,12.177498 18.4225,12.5725 C18.0874983,12.967502 17.6450028,13.2499992 17.095,13.42 L17.095,13.45 C17.4450017,13.5000002 17.7624986,13.5974993 18.0475,13.7425 C18.3325014,13.8875007 18.577499,14.0724989 18.7825,14.2975 C18.987501,14.5225011 19.1449995,14.7849985 19.255,15.085 C19.3650005,15.3850015 19.42,15.7049983 19.42,16.045 C19.42,16.6050028 19.3000012,17.0724981 19.06,17.4475 C18.8199988,17.8225019 18.5100019,18.1249988 18.13,18.355 C17.7499981,18.5850011 17.3225024,18.7499995 16.8475,18.85 C16.3724976,18.9500005 15.9000023,19 15.43,19 L11.08,19 L11.08,8.38 L11.08,8.38 Z M13.42,12.625 L15.115,12.625 C15.2950009,12.625 15.4724991,12.6050002 15.6475,12.565 C15.8225009,12.5249998 15.9799993,12.4600004 16.12,12.37 C16.2600007,12.2799996 16.3724996,12.1600007 16.4575,12.01 C16.5425004,11.8599992 16.585,11.680001 16.585,11.47 C16.585,11.2499989 16.5375005,11.0675007 16.4425,10.9225 C16.3474995,10.7774993 16.2250007,10.6650004 16.075,10.585 C15.9249992,10.5049996 15.755001,10.4475002 15.565,10.4125 C15.374999,10.3774998 15.1900009,10.36 15.01,10.36 L13.42,10.36 L13.42,12.625 L13.42,12.625 Z M13.42,17.02 L15.52,17.02 C15.7000009,17.02 15.8824991,17.0000002 16.0675,16.96 C16.2525009,16.9199998 16.4199992,16.8500005 16.57,16.75 C16.7200007,16.6499995 16.8424995,16.5200008 16.9375,16.36 C17.0325005,16.1999992 17.08,16.0050011 17.08,15.775 C17.08,15.5249988 17.0175006,15.3225008 16.8925,15.1675 C16.7674994,15.0124992 16.6100009,14.8950004 16.42,14.815 C16.2299991,14.7349996 16.0250011,14.6800002 15.805,14.65 C15.5849989,14.6199998 15.380001,14.605 15.19,14.605 L13.42,14.605 L13.42,17.02 L13.42,17.02 Z" id="B" fill="#666666"></path>
            </g>
        </g>
    </g>
</svg>