<?xml version="1.0" encoding="UTF-8" standalone="no"?>
<svg width="29px" height="35px" viewBox="0 0 29 35" version="1.1" xmlns="http://www.w3.org/2000/svg" xmlns:xlink="http://www.w3.org/1999/xlink" xmlns:sketch="http://www.bohemiancoding.com/sketch/ns">
    <title>pd-input-icon-a</title>
    <description>Created with Sketch (http://www.bohemiancoding.com/sketch)</description>
    <defs></defs>
    <g id="Page-1" stroke="none" stroke-width="1" fill="none" fill-rule="evenodd" sketch:type="MSPage">
        <path d="M14.5,0 C6.49178338,0 0,6.40873786 0,14.3143204 C0,22.342233 7.05035608,27.6375121 14.5,35 C21.9496439,27.6375121 29,22.342233 29,14.3143204 C29,6.40873786 22.5082166,0 14.5,0 L14.5,0 L14.5,0 L14.5,0 Z M14.5,24.3775 C8.62470326,24.3775 3.86173294,19.6755218 3.86173294,13.8754612 C3.86173294,8.07531553 8.62470326,3.37333738 14.5,3.37333738 C20.3753828,3.37333738 25.1383531,8.07523058 25.1383531,13.8754612 C25.1383531,19.6755218 20.3753828,24.3775 14.5,24.3775 L14.5,24.3775 L14.5,24.3775 L14.5,24.3775 Z M14.5,24.3775" id="location-5-icon" fill="#A4C6FD" sketch:type="MSShapeGroup"></path>
        <path d="M13.575,8.38 L15.51,8.38 L20.13,19 L17.49,19 L16.575,16.75 L12.45,16.75 L11.565,19 L8.985,19 L13.575,8.38 Z M14.475,11.47 L13.185,14.77 L15.78,14.77 L14.475,11.47 Z M14.475,11.47" id="A" fill="#666666" sketch:type="MSShapeGroup"></path>
    </g>
</svg>